<svg width="126" height="44" viewBox="0 0 126 44" fill="none" xmlns="http://www.w3.org/2000/svg">
<path fill-rule="evenodd" clip-rule="evenodd" d="M103.35 8.26244C104.013 8.7624 104.344 9.44286 104.344 10.3038C104.346 10.8121 104.259 11.3173 104.086 11.7998L100.696 21.9672C100.628 22.2004 100.591 22.4403 100.585 22.6818C100.571 22.926 100.635 23.1687 100.77 23.3793C100.912 23.5681 101.086 23.7345 101.286 23.8722C101.421 23.9925 101.544 24.1242 101.654 24.2655C101.692 24.3243 101.715 24.3902 101.721 24.4583C101.727 24.5264 101.717 24.595 101.691 24.6589C101.625 24.809 101.525 24.9444 101.398 25.0559C101.271 25.1674 101.119 25.2525 100.953 25.3052C100.586 25.4416 100.021 25.5098 99.2585 25.5098H90.8643C90.226 25.5098 89.7596 25.4132 89.465 25.22C89.3255 25.1445 89.2187 25.0266 89.163 24.8864C89.1073 24.7463 89.1061 24.5926 89.1596 24.4517C89.259 24.179 89.5162 23.9417 89.9338 23.7372C90.2789 23.5726 90.5904 23.3539 90.8544 23.0908C91.1006 22.8417 91.3094 22.4449 91.4808 21.9003L94.6871 12.0672C94.7527 11.9036 94.7901 11.7315 94.7979 11.5572C94.81 11.3453 94.745 11.1358 94.6132 10.962C94.454 10.7851 94.2679 10.6306 94.0606 10.5031C93.8643 10.3687 93.6905 10.2084 93.5449 10.0272C93.4949 9.94487 93.4656 9.85321 93.4592 9.75901C93.4528 9.66481 93.4695 9.57049 93.508 9.48306C93.6557 8.95863 94.4295 8.49975 95.8292 8.10643C97.2504 7.70647 98.7287 7.50582 100.215 7.5112C101.641 7.51382 102.686 7.76423 103.35 8.26244ZM105.081 0.866616C105.392 1.14029 105.638 1.47051 105.803 1.83635C105.968 2.20219 106.049 2.59567 106.04 2.99189C106.035 3.59944 105.864 4.19599 105.543 4.72645C105.214 5.29003 104.731 5.76455 104.142 6.10309C103.542 6.4537 102.844 6.63589 102.134 6.62752C101.7 6.63817 101.269 6.56677 100.867 6.41772C100.464 6.26868 100.099 6.04514 99.7941 5.7609C99.4861 5.47834 99.2416 5.14254 99.0744 4.7727C98.9072 4.40285 98.8206 4.00622 98.8195 3.60547C98.8256 3.0164 98.9901 2.43794 99.2983 1.92204C99.6201 1.36457 100.089 0.891069 100.662 0.545402C101.262 0.179443 101.968 -0.010242 102.688 0.00130286C103.129 -0.0106567 103.569 0.0598224 103.98 0.208516C104.392 0.357211 104.766 0.581052 105.081 0.866616ZM75.9923 9.18151C77.0852 10.3833 77.6316 11.9702 77.6316 13.9421C77.6331 14.9515 77.497 15.9571 77.2268 16.9353C76.4398 19.859 75.095 22.069 73.1923 23.5654C71.3725 25.0329 69.0316 25.8318 66.6151 25.81C65.2163 25.81 64.0064 25.5889 62.9855 25.1466C62.0011 24.7311 61.1553 24.0796 60.5364 23.2599L59.2096 24.3088C58.7588 24.6788 58.249 24.9826 57.6981 25.2095C57.1603 25.4112 56.5837 25.5102 56.0033 25.5006H54.3825C53.7688 25.5006 53.2952 25.3813 52.9619 25.1427C52.6285 24.904 52.4628 24.5583 52.4647 24.1056C52.4703 23.8646 52.5075 23.6251 52.5755 23.3924L58.7308 4.93098C58.7952 4.76709 58.832 4.59511 58.8402 4.42097C58.8402 4.03551 58.5826 3.67278 58.0674 3.33277C57.8781 3.18433 57.7053 3.01874 57.5518 2.83849C57.5022 2.76544 57.4729 2.68225 57.4664 2.59627C57.46 2.51029 57.4766 2.42417 57.5148 2.34552C57.6853 1.82109 58.4652 1.36221 59.8545 0.968883C61.2689 0.568722 62.7406 0.368046 64.22 0.373649C65.6405 0.373649 66.6908 0.628873 67.3708 1.13932C68.0508 1.64977 68.3884 2.33547 68.3837 3.19641C68.3815 3.68198 68.2947 4.16407 68.1265 4.62418L66.5724 9.24969C67.2392 8.64652 68.0283 8.17077 68.8947 7.84972C69.7611 7.52866 70.6876 7.36862 71.6212 7.37877C73.4414 7.37877 74.8985 7.97969 75.9923 9.18151ZM68.199 12.9902C68.199 11.9475 67.8675 11.4261 67.2046 11.4261C66.6146 11.4261 66.062 11.7093 65.5468 12.2757L63.1517 19.4866L62.9301 20.133C62.8084 20.4713 62.7466 20.8254 62.7468 21.1819C62.7468 21.9746 63.1522 22.371 63.9628 22.371C64.5528 22.371 65.1178 21.9746 65.6576 21.1819C66.1974 20.3891 66.7993 18.9032 67.4631 16.7242C67.9537 15.1867 68.199 13.9421 68.199 12.9902ZM26.8033 4.42093C28.2191 5.46368 28.9271 6.84644 28.9271 8.5692C28.9202 9.29379 28.8084 10.0143 28.5946 10.7115C27.9071 12.9788 26.5499 14.6566 24.5233 15.7448C22.4966 16.833 19.9343 17.3753 16.8365 17.3718H13.0421L11.7892 21.486C11.7338 21.6627 11.7089 21.8463 11.7153 22.0301C11.7021 22.3091 11.7857 22.5847 11.954 22.8168C12.1685 23.075 12.4092 23.3139 12.6728 23.53C12.8694 23.6882 13.054 23.8586 13.2254 24.04C13.3225 24.1571 13.3727 24.3017 13.3675 24.4491C13.3758 24.6251 13.3231 24.7991 13.2171 24.9457C13.1111 25.0923 12.9573 25.204 12.7779 25.2646C12.3887 25.4219 11.8133 25.5005 11.0519 25.5005H1.80395C1.16469 25.5005 0.685483 25.3926 0.366326 25.1767C0.0471697 24.9608 -0.0631643 24.6606 0.0353292 24.276C0.0738747 24.0906 0.169568 23.9194 0.310922 23.783C0.497088 23.6224 0.700858 23.48 0.918933 23.3582C1.28704 23.167 1.6222 22.9262 1.91334 22.6437C2.15957 22.3946 2.35655 22.0091 2.5043 21.4873L6.99901 6.8307C7.09208 6.55565 7.13996 6.26927 7.14107 5.98112C7.14767 5.7652 7.10356 5.55051 7.01179 5.3518C6.90572 5.14808 6.78862 4.94942 6.66091 4.75657C6.44072 4.46157 6.32991 4.22427 6.32991 4.04203C6.34054 3.91546 6.3653 3.79025 6.40378 3.66837C6.45051 3.52425 6.53319 3.39224 6.6452 3.28295C6.7572 3.17366 6.89541 3.09012 7.04872 3.03905C7.38019 2.91406 7.88971 2.85156 8.57727 2.85156H20.7729C23.3811 2.85418 25.3912 3.37731 26.8033 4.42093ZM20.226 7.88875C20.226 6.57767 19.5631 5.92212 18.2372 5.92212H16.5794L13.9627 14.3209H15.5836C16.6149 14.3209 17.4564 14.0207 18.1079 13.4202C18.7595 12.8197 19.3306 11.7145 19.8211 10.1045C20.0698 9.38748 20.2061 8.64136 20.226 7.88875ZM46.7383 43.9987C47.942 43.9996 48.8711 43.598 49.5255 42.7938C50.1827 41.9906 50.5114 40.6332 50.5114 38.7216C50.5104 36.8022 50.1827 35.443 49.5283 34.6441C48.8739 33.8452 47.9449 33.4458 46.7411 33.4458C45.9504 33.4458 45.2874 33.5992 44.7523 33.906C44.2154 34.2128 43.7802 34.7656 43.4468 35.5645C43.1135 36.3634 42.9468 37.4158 42.9468 38.7216C42.9468 40.6218 43.2782 41.9766 43.9412 42.786C44.6022 43.5936 45.5346 43.9979 46.7383 43.9987ZM48.1859 38.7229C48.1859 41.0348 47.7034 42.1907 46.7383 42.1907H46.7411C45.7657 42.1899 45.2775 41.0339 45.2765 38.7229C45.2756 36.4119 45.7638 35.2564 46.7411 35.2564C47.7043 35.2555 48.1859 36.411 48.1859 38.7229ZM29.0152 33.5977V43.8477L31.3378 43.8412V38.3097L32.8394 41.5874H33.6605L35.091 38.2704V43.8477H37.4108V33.5977H35.3197L33.2144 38.1655L31.1773 33.5977H29.0152ZM56.0502 43.8477V33.5977H59.2849C60.3929 33.5977 61.2329 33.8114 61.805 34.2388C62.377 34.6662 62.6611 35.2715 62.6573 36.0546C62.6573 37.0004 62.1923 37.8045 61.2623 38.467C62.2046 39.3717 62.6753 40.3261 62.6744 41.3304C62.6744 42.0847 62.4063 42.6931 61.8703 43.1555C61.3343 43.6178 60.5293 43.8486 59.4553 43.8477H56.0502ZM58.3743 37.9242C59.0533 37.7241 59.5533 37.4981 59.8744 37.2464C60.0318 37.1255 60.1572 36.973 60.2409 36.8005C60.3246 36.628 60.3645 36.4402 60.3574 36.2513C60.3574 35.6893 59.9999 35.4078 59.2849 35.407H58.3743V37.9242ZM58.3743 42.0397H59.2849C60.0122 42.0397 60.3759 41.708 60.3759 41.0446C60.3759 40.5621 60.0719 40.0093 59.4639 39.3861C59.1103 39.5262 58.7461 39.6423 58.3743 39.7335V42.0397ZM68.3979 33.5977V43.8477H70.722V33.5977H68.3979ZM76.9228 43.8477V33.5977H79.2454V42.0397H82.3707V43.8477H76.9228ZM87.6794 33.5977V43.8477L93.1373 43.8516V42.0437H90.012V39.5526H92.427V37.7433H90.012V35.407H93.1373V33.5977H87.6794ZM49.3721 21.22C49.38 21.0815 49.4047 20.9443 49.4459 20.811L52.4178 11.8025C52.5962 11.3085 52.6953 10.793 52.7118 10.2725C52.7264 9.8879 52.6422 9.5056 52.4662 9.15676C52.2902 8.80792 52.0273 8.50243 51.699 8.26521C51.019 7.76699 49.9687 7.51789 48.5481 7.51789C47.0628 7.51253 45.585 7.71318 44.1642 8.11312C42.7645 8.50644 42.0026 8.96532 41.8785 9.48976C41.8404 9.57726 41.8239 9.67153 41.8303 9.76566C41.8367 9.8598 41.8658 9.95143 41.9155 10.0339C42.0612 10.2153 42.2355 10.3757 42.4325 10.5098C42.6237 10.6432 42.7968 10.7972 42.9482 10.9687C43.0789 11.1429 43.1434 11.3522 43.1315 11.5639C43.1235 11.7381 43.0866 11.9101 43.0221 12.0739L40.7733 18.9099C40.4793 19.4999 40.1838 19.9181 39.8897 20.1685C39.5767 20.4228 39.1699 20.5566 38.7532 20.5422C38.4721 20.5539 38.1962 20.4689 37.979 20.3036C37.8763 20.2119 37.7967 20.1005 37.7458 19.9772C37.695 19.854 37.6742 19.7219 37.685 19.5904C37.6869 19.3464 37.735 19.1046 37.827 18.8758L40.1483 11.796C40.3216 11.3135 40.4089 10.8083 40.4068 10.3C40.4068 9.43731 40.0753 8.75686 39.4124 8.25865C38.7495 7.76044 37.7077 7.51133 36.2871 7.51133C34.8013 7.50606 33.3231 7.7067 31.9018 8.10656C30.5021 8.49989 29.7283 8.95877 29.5806 9.4832C29.5424 9.57071 29.526 9.66497 29.5324 9.75911C29.5387 9.85324 29.5678 9.94487 29.6175 10.0273C29.7631 10.2085 29.9368 10.3689 30.1332 10.5032C30.3408 10.6307 30.5275 10.7853 30.6872 10.9621C30.8179 11.1364 30.8824 11.3457 30.8705 11.5573C30.8627 11.7316 30.8253 11.9037 30.7597 12.0674L28.4015 19.1747C28.1643 19.8098 28.0401 20.4762 28.0336 21.1479C28.0336 22.5517 28.617 23.6442 29.7837 24.4256C30.9505 25.207 32.3938 25.5977 34.1136 25.5977C35.2454 25.5936 36.3618 25.3557 37.381 24.9016C38.4968 24.4039 39.493 23.7044 40.3102 22.8445C40.5531 23.7248 41.1446 24.4892 41.968 24.9868C42.8279 25.5304 43.9824 25.8023 45.4314 25.8023C46.512 25.8168 47.5823 25.6076 48.5638 25.19C49.4976 24.7818 50.2221 24.2661 50.7373 23.6429C51.2524 23.0197 51.4982 22.3908 51.4745 21.7563C51.4797 21.5742 51.4353 21.3939 51.3453 21.2318C51.26 21.0837 51.1549 21.0103 51.0327 21.0103C50.956 21.0103 50.814 21.1296 50.6065 21.3669C50.5197 21.4769 50.4061 21.5666 50.2748 21.6288C50.1436 21.691 49.9983 21.7238 49.8508 21.7248C49.7857 21.7283 49.7205 21.7183 49.66 21.6957C49.5996 21.673 49.5454 21.6381 49.5013 21.5937C49.4094 21.4883 49.3633 21.3551 49.3721 21.22ZM92.9597 3.16247C92.9597 2.30065 92.6221 1.62063 91.9468 1.12242C91.2716 0.623334 90.2199 0.374227 88.7917 0.375101C87.3077 0.369921 85.8309 0.564704 84.4078 0.953289C83.0072 1.33525 82.2329 1.78845 82.0852 2.31289C82.0465 2.40105 82.0314 2.49648 82.0411 2.59116C82.0507 2.68585 82.0848 2.77701 82.1406 2.85699C82.2974 3.03511 82.4767 3.19532 82.6747 3.33422C82.8732 3.47256 83.053 3.63234 83.2103 3.81014C83.3508 3.98721 83.422 4.20312 83.412 4.42242C83.404 4.5967 83.3666 4.76876 83.3012 4.93243L77.7013 21.9005C77.5299 22.445 77.3211 22.8418 77.0748 23.091C76.8109 23.354 76.4994 23.5727 76.1543 23.7373C75.7366 23.9418 75.4781 24.1792 75.3801 24.4519C75.3264 24.5926 75.3274 24.7462 75.3829 24.8863C75.4383 25.0264 75.5448 25.1444 75.6841 25.2202C75.9795 25.4133 76.4464 25.5099 77.0848 25.5099H85.4804C86.2409 25.5099 86.8058 25.4417 87.1751 25.3054C87.3408 25.2524 87.4923 25.1673 87.6195 25.0558C87.7467 24.9443 87.8465 24.809 87.9124 24.659C87.9381 24.595 87.9482 24.5265 87.9418 24.4585C87.9354 24.3905 87.9128 24.3246 87.8755 24.2657C87.7657 24.1244 87.6421 23.9927 87.5061 23.8724C87.307 23.7343 87.1329 23.5679 86.9904 23.3794C86.8556 23.1688 86.7914 22.9261 86.8058 22.6819C86.8114 22.4405 86.8486 22.2005 86.9166 21.9674L92.7012 4.62433C92.8724 4.15314 92.9597 3.65945 92.9597 3.16247ZM123.965 9.57214C123.338 8.88076 122.46 8.33666 121.331 7.93983C120.202 7.54301 118.887 7.34285 117.388 7.33936C114.269 7.33761 111.573 8.05171 109.301 9.48167C107.028 10.9116 105.56 13.0312 104.897 15.8404C104.712 16.6113 104.613 17.3978 104.603 18.1873C104.602 19.6871 104.976 20.9982 105.726 22.1205C106.485 23.2506 107.587 24.1494 108.896 24.7047C110.259 25.3051 111.824 25.6054 113.594 25.6054C115.183 25.6286 116.756 25.308 118.188 24.6693C119.55 24.0452 120.618 23.2743 121.393 22.3565C122.167 21.4388 122.542 20.5603 122.518 19.7212C122.531 19.5983 122.506 19.4743 122.444 19.3646C122.404 19.3316 122.357 19.3069 122.306 19.2922C122.255 19.2775 122.201 19.2731 122.148 19.2794C121.928 19.2794 121.572 19.393 121.08 19.6203C120.52 19.8593 119.941 20.0578 119.348 20.2142C118.687 20.3732 118.005 20.4477 117.321 20.4358C115.946 20.4367 114.89 20.1194 114.153 19.4839C113.416 18.8485 113.048 17.9189 113.048 16.6953C113.057 16.0783 113.131 15.4636 113.268 14.8597C113.537 13.6588 114.072 12.6899 114.872 11.9531C115.624 11.2411 116.57 10.7296 117.611 10.4728C117.468 10.938 117.394 11.4186 117.389 11.9019C117.389 12.8547 117.721 13.6085 118.384 14.1636C119.047 14.7186 119.968 14.9961 121.147 14.9961C122.3 14.997 123.215 14.7024 123.891 14.1124C124.223 13.8262 124.485 13.478 124.66 13.0909C124.835 12.7039 124.919 12.287 124.906 11.8678C124.903 11.0229 124.569 10.2074 123.965 9.57214Z" fill="#F39D80"/>
</svg>
